<svg width="17" height="15" viewBox="0 0 17 15" fill="none" xmlns="http://www.w3.org/2000/svg">
<path d="M11 10.3313V1H1V10.3313H11ZM11 10.3313L15.6667 10.3312V6.74227L13.6667 4.58889H11V10.3313ZM5.66658 12.1259C5.66658 13.117 4.92039 13.9204 3.99992 13.9204C3.07944 13.9204 2.33325 13.117 2.33325 12.1259C2.33325 11.1348 3.07944 10.3314 3.99992 10.3314C4.92039 10.3314 5.66658 11.1348 5.66658 12.1259ZM14.3333 12.1259C14.3333 13.117 13.5871 13.9204 12.6667 13.9204C11.7462 13.9204 11 13.117 11 12.1259C11 11.1348 11.7462 10.3314 12.6667 10.3314C13.5871 10.3314 14.3333 11.1348 14.3333 12.1259Z" stroke="#555555" stroke-linecap="round" stroke-linejoin="round"/>
</svg>
