<svg width="16" height="16" viewBox="0 0 16 16" fill="none" xmlns="http://www.w3.org/2000/svg">
<path d="M2.43335 6.73333C2.43335 4.03078 2.43335 2.67915 3.27328 1.83993C4.11322 1.00072 5.46413 1 8.16668 1C10.8692 1 12.2209 1 13.0601 1.83993C13.8993 2.67987 13.9 4.03078 13.9 6.73333V8.16667C13.9 10.8692 13.9 12.2208 13.0601 13.0601C12.2201 13.8993 10.8692 13.9 8.16668 13.9C5.46413 13.9 4.1125 13.9 3.27328 13.0601C2.43407 12.2201 2.43335 10.8692 2.43335 8.16667V6.73333Z" stroke="#555555"/>
<path d="M10.675 11.0335H11.75M4.58333 11.0335H5.65833M3.86667 13.5418V14.6168C3.86667 14.8069 3.94217 14.9892 4.07657 15.1236C4.21097 15.258 4.39326 15.3335 4.58333 15.3335H5.65833C5.84841 15.3335 6.03069 15.258 6.16509 15.1236C6.29949 14.9892 6.375 14.8069 6.375 14.6168V13.9002M12.4667 13.5418V14.6168C12.4667 14.8069 12.3912 14.9892 12.2568 15.1236C12.1224 15.258 11.9401 15.3335 11.75 15.3335H10.675C10.4849 15.3335 10.3026 15.258 10.1682 15.1236C10.0338 14.9892 9.95833 14.8069 9.95833 14.6168V13.9002M13.9 6.01685H14.6167C14.8067 6.01685 14.989 6.09235 15.1234 6.22675C15.2578 6.36115 15.3333 6.54344 15.3333 6.73351V7.45018C15.3333 7.56144 15.3074 7.67117 15.2577 7.77068C15.2079 7.87019 15.1357 7.95676 15.0467 8.02351L13.9 8.88351H2.43333L1.28667 8.02351C1.19766 7.95676 1.12542 7.87019 1.07566 7.77068C1.0259 7.67117 1 7.56144 1 7.45018V6.73351C1 6.54344 1.07551 6.36115 1.20991 6.22675C1.34431 6.09235 1.52659 6.01685 1.71667 6.01685H2.43333" stroke="#555555" stroke-linecap="round" stroke-linejoin="round"/>
<path d="M13.5417 3.1499H2.79175" stroke="#555555" stroke-linecap="round"/>
</svg>
