<svg width="18" height="19" viewBox="0 0 18 19" fill="none" xmlns="http://www.w3.org/2000/svg">
<path d="M10.9104 4.29262C11.6586 4.44948 12.3462 4.8427 12.8852 5.42193C13.4242 6.00117 13.7901 6.74008 13.9361 7.54408M10.9104 1C12.4648 1.18557 13.9143 1.9336 15.0209 3.12128C16.1275 4.30895 16.8254 5.86568 17 7.53585M16.234 14.1046V16.5741C16.2349 16.8033 16.1912 17.0303 16.1057 17.2403C16.0203 17.4504 15.8949 17.6389 15.7377 17.7939C15.5805 17.9489 15.3949 18.0669 15.1928 18.1403C14.9908 18.2138 14.7766 18.241 14.5642 18.2204C12.2071 17.9452 9.94297 17.0796 7.95371 15.6933C6.10295 14.4295 4.53384 12.7433 3.35779 10.7544C2.06326 8.60694 1.25765 6.162 1.00622 3.61763C0.987076 3.39 1.01225 3.16058 1.08014 2.94398C1.14802 2.72738 1.25713 2.52834 1.40052 2.35954C1.54391 2.19074 1.71843 2.05587 1.91298 1.96352C2.10753 1.87117 2.31785 1.82337 2.53053 1.82315H4.82849C5.20022 1.81922 5.56061 1.96069 5.84247 2.22118C6.12433 2.48167 6.30843 2.84341 6.36046 3.23898C6.45745 4.02926 6.63732 4.80522 6.89665 5.55205C6.99971 5.84667 7.02201 6.16687 6.96092 6.4747C6.89983 6.78254 6.7579 7.0651 6.55195 7.2889L5.57915 8.33431C6.66958 10.3951 8.25739 12.1014 10.1751 13.2732L11.1479 12.2278C11.3561 12.0065 11.6191 11.854 11.9055 11.7883C12.192 11.7227 12.4899 11.7467 12.7641 11.8574C13.4591 12.1361 14.1811 12.3294 14.9165 12.4336C15.2886 12.49 15.6284 12.6914 15.8713 12.9995C16.1143 13.3076 16.2433 13.7009 16.234 14.1046Z" stroke="#555555" stroke-linecap="round" stroke-linejoin="round"/>
</svg>
