<svg width="14" height="18" viewBox="0 0 14 18" fill="none" xmlns="http://www.w3.org/2000/svg">
<path d="M13 7.46015C13 12.4847 7 16.7915 7 16.7915C7 16.7915 1 12.4847 1 7.46015C1 5.74682 1.63214 4.10365 2.75736 2.89214C3.88258 1.68062 5.4087 1 7 1C8.5913 1 10.1174 1.68062 11.2426 2.89214C12.3679 4.10365 13 5.74682 13 7.46015Z" stroke="#555555" stroke-linecap="round" stroke-linejoin="round"/>
<path d="M7 9.61354C8.10457 9.61354 9 8.64944 9 7.46015C9 6.27087 8.10457 5.30677 7 5.30677C5.89543 5.30677 5 6.27087 5 7.46015C5 8.64944 5.89543 9.61354 7 9.61354Z" stroke="#555555" stroke-linecap="round" stroke-linejoin="round"/>
</svg>
