<svg width="23" height="24" viewBox="0 0 23 24" fill="none" xmlns="http://www.w3.org/2000/svg">
<path d="M13.9381 5.36816C14.9149 5.55873 15.8125 6.03642 16.5162 6.7401C17.2199 7.44378 17.6976 8.34143 17.8881 9.31816M13.9381 1.36816C15.9674 1.5936 17.8597 2.50234 19.3044 3.94517C20.749 5.388 21.6601 7.27917 21.8881 9.30816M20.8881 17.2882V20.2882C20.8892 20.5667 20.8322 20.8423 20.7206 21.0975C20.6091 21.3527 20.4454 21.5818 20.2402 21.77C20.035 21.9583 19.7927 22.1016 19.5289 22.1909C19.265 22.2801 18.9855 22.3132 18.7081 22.2882C15.631 21.9538 12.6751 20.9023 10.0781 19.2182C7.66194 17.6828 5.61345 15.6343 4.07812 13.2182C2.38809 10.6094 1.33636 7.63916 1.00812 4.54816C0.983127 4.27163 1.01599 3.99292 1.10462 3.72979C1.19324 3.46665 1.33569 3.22485 1.52288 3.01979C1.71008 2.81472 1.93792 2.65087 2.19191 2.53869C2.44589 2.4265 2.72046 2.36843 2.99812 2.36816H5.99812C6.48342 2.36339 6.95391 2.53524 7.32188 2.8517C7.68985 3.16815 7.93019 3.60761 7.99812 4.08816C8.12474 5.04823 8.35957 5.99089 8.69812 6.89816C8.83266 7.25609 8.86178 7.64508 8.78202 8.01904C8.70227 8.39301 8.51698 8.73628 8.24812 9.00816L6.97812 10.2782C8.40167 12.7817 10.4746 14.8546 12.9781 16.2782L14.2481 15.0082C14.52 14.7393 14.8633 14.554 15.2372 14.4743C15.6112 14.3945 16.0002 14.4236 16.3581 14.5582C17.2654 14.8967 18.2081 15.1315 19.1681 15.2582C19.6539 15.3267 20.0975 15.5714 20.4146 15.9457C20.7318 16.3199 20.9003 16.7977 20.8881 17.2882Z" stroke="#555555" stroke-width="1.5" stroke-linecap="round" stroke-linejoin="round"/>
</svg>
