<svg width="17" height="17" viewBox="0 0 17 17" fill="none" xmlns="http://www.w3.org/2000/svg">
<path d="M10.291 3.87245C10.9924 4.00929 11.637 4.35233 12.1424 4.85765C12.6477 5.36297 12.9907 6.00758 13.1276 6.70899M10.291 1C11.7483 1.16189 13.1072 1.81446 14.1446 2.85058C15.182 3.88669 15.8363 5.24476 16 6.70181M15.2819 12.4323V14.5867C15.2827 14.7867 15.2417 14.9846 15.1616 15.1679C15.0815 15.3511 14.964 15.5156 14.8166 15.6508C14.6692 15.786 14.4953 15.889 14.3058 15.953C14.1163 16.0171 13.9156 16.0409 13.7164 16.0229C11.5067 15.7828 9.38404 15.0277 7.5191 13.8183C5.78402 12.7157 4.31297 11.2447 3.21043 9.50962C1.99681 7.63622 1.24154 5.50327 1.00583 3.28359C0.987883 3.08501 1.01148 2.88487 1.07513 2.69591C1.13877 2.50695 1.24106 2.33331 1.37549 2.18605C1.50992 2.03879 1.67353 1.92113 1.85592 1.84057C2.03831 1.76 2.23548 1.7183 2.43487 1.71811H4.58921C4.93771 1.71468 5.27557 1.83809 5.53981 2.06534C5.80406 2.29259 5.97665 2.60817 6.02543 2.95326C6.11636 3.6427 6.28499 4.31963 6.52811 4.97116C6.62473 5.22819 6.64564 5.50753 6.58836 5.77607C6.53109 6.04462 6.39803 6.29113 6.20496 6.48637L5.29296 7.39837C6.31523 9.1962 7.8038 10.6848 9.60163 11.707L10.5136 10.795C10.7089 10.602 10.9554 10.4689 11.2239 10.4116C11.4925 10.3544 11.7718 10.3753 12.0288 10.4719C12.6804 10.715 13.3573 10.8836 14.0467 10.9746C14.3956 11.0238 14.7142 11.1995 14.9419 11.4683C15.1696 11.737 15.2906 12.0802 15.2819 12.4323Z" stroke="#333333" stroke-linecap="round" stroke-linejoin="round"/>
</svg>
