<svg width="20" height="21" viewBox="0 0 20 21" fill="none" xmlns="http://www.w3.org/2000/svg">
<path d="M18.8965 0.0229492H1.10351C0.494057 0.0229492 0 0.517006 0 1.12646V18.9194C0 19.5289 0.494057 20.0229 1.10351 20.0229H18.8965C19.5059 20.0229 20 19.5289 20 18.9194V1.12646C20 0.517006 19.5059 0.0229492 18.8965 0.0229492Z" fill="#3D5A98"/>
<path d="M13.7981 20.0213V12.2764H16.3971L16.7858 9.25827H13.7981V7.33178C13.7981 6.4581 14.0414 5.86156 15.2936 5.86156H16.8923V3.15772C16.1181 3.07719 15.3402 3.03883 14.5619 3.04281C12.2602 3.04281 10.6751 4.44543 10.6751 7.03267V9.25827H8.07605V12.2764H10.6751V20.0213H13.7981Z" fill="white"/>
</svg>
