<svg width="14" height="17" viewBox="0 0 14 17" fill="none" xmlns="http://www.w3.org/2000/svg">
<path d="M13 7.18287C13 11.9306 7 16.0001 7 16.0001C7 16.0001 1 11.9306 1 7.18287C1 5.56392 1.63214 4.01128 2.75736 2.86651C3.88258 1.72174 5.4087 1.07861 7 1.07861C8.5913 1.07861 10.1174 1.72174 11.2426 2.86651C12.3679 4.01128 13 5.56392 13 7.18287Z" stroke="#555555" stroke-linecap="round" stroke-linejoin="round"/>
<path d="M7 9.21762C8.10457 9.21762 9 8.30663 9 7.18287C9 6.0591 8.10457 5.14812 7 5.14812C5.89543 5.14812 5 6.0591 5 7.18287C5 8.30663 5.89543 9.21762 7 9.21762Z" stroke="#555555" stroke-linecap="round" stroke-linejoin="round"/>
</svg>
