<svg width="14" height="14" viewBox="0 0 14 14" fill="none" xmlns="http://www.w3.org/2000/svg">
<path d="M8.43281 3.29796C8.99393 3.40743 9.50962 3.68186 9.91388 4.08612C10.3181 4.49037 10.5926 5.00607 10.702 5.56719M8.43281 1C9.59861 1.12951 10.6857 1.65157 11.5157 2.48046C12.3456 3.30936 12.869 4.39581 13 5.56144M12.4255 10.1459V11.8693C12.4262 12.0293 12.3934 12.1877 12.3293 12.3343C12.2652 12.4809 12.1712 12.6125 12.0533 12.7207C11.9354 12.8288 11.7962 12.9112 11.6446 12.9624C11.4931 13.0137 11.3325 13.0327 11.1731 13.0183C9.40532 12.8262 7.70723 12.2222 6.21528 11.2546C4.82722 10.3726 3.65038 9.19576 2.76835 7.8077C1.79745 6.30897 1.19324 4.60262 1.00466 2.82688C0.990307 2.66801 1.00919 2.5079 1.0601 2.35673C1.11102 2.20556 1.19285 2.06665 1.30039 1.94884C1.40793 1.83103 1.53883 1.7369 1.68474 1.67245C1.83065 1.608 1.98838 1.57464 2.1479 1.57449H3.87136C4.15017 1.57175 4.42046 1.67047 4.63185 1.85227C4.84325 2.03407 4.98132 2.28654 5.02034 2.56261C5.09309 3.11416 5.22799 3.65571 5.42249 4.17693C5.49978 4.38255 5.51651 4.60602 5.47069 4.82086C5.42487 5.0357 5.31842 5.2329 5.16397 5.3891L4.43436 6.1187C5.25218 7.55696 6.44304 8.74782 7.8813 9.56564L8.6109 8.83603C8.7671 8.68158 8.9643 8.57513 9.17914 8.52931C9.39398 8.48349 9.61745 8.50022 9.82307 8.57751C10.3443 8.77201 10.8858 8.90691 11.4374 8.97966C11.7165 9.01903 11.9713 9.15959 12.1535 9.37461C12.3357 9.58964 12.4325 9.86413 12.4255 10.1459Z" stroke="#333333" stroke-linecap="round" stroke-linejoin="round"/>
</svg>
