<svg width="20" height="21" viewBox="0 0 20 21" fill="none" xmlns="http://www.w3.org/2000/svg">
<path d="M15.3125 0.0229492H4.6875C2.09867 0.0229492 0 2.12161 0 4.71045V15.3354C0 17.9243 2.09867 20.0229 4.6875 20.0229H15.3125C17.9013 20.0229 20 17.9243 20 15.3354V4.71045C20 2.12161 17.9013 0.0229492 15.3125 0.0229492Z" fill="url(#paint0_radial_4968_2139)"/>
<path d="M15.3125 0.0229492H4.6875C2.09867 0.0229492 0 2.12161 0 4.71045V15.3354C0 17.9243 2.09867 20.0229 4.6875 20.0229H15.3125C17.9013 20.0229 20 17.9243 20 15.3354V4.71045C20 2.12161 17.9013 0.0229492 15.3125 0.0229492Z" fill="url(#paint1_radial_4968_2139)"/>
<path d="M10.0007 2.21045C7.87898 2.21045 7.61266 2.21975 6.77938 2.25764C5.94766 2.29576 5.37992 2.4274 4.8832 2.62061C4.3693 2.82014 3.93344 3.08709 3.49922 3.52146C3.06461 3.95576 2.79766 4.39162 2.5975 4.90529C2.40375 5.40217 2.27195 5.97014 2.23453 6.80147C2.19727 7.63482 2.1875 7.90123 2.1875 10.023C2.1875 12.1448 2.19688 12.4103 2.23469 13.2436C2.27297 14.0753 2.40461 14.643 2.59766 15.1397C2.79734 15.6537 3.0643 16.0895 3.49867 16.5237C3.93281 16.9583 4.36867 17.2259 4.88219 17.4254C5.3793 17.6187 5.94711 17.7503 6.77867 17.7884C7.61203 17.8263 7.87813 17.8356 9.99977 17.8356C12.1217 17.8356 12.3872 17.8263 13.2205 17.7884C14.0522 17.7503 14.6205 17.6187 15.1177 17.4254C15.6313 17.2259 16.0666 16.9583 16.5006 16.5237C16.9352 16.0895 17.2021 15.6537 17.4023 15.14C17.5944 14.643 17.7262 14.0751 17.7653 13.2437C17.8027 12.4104 17.8125 12.1448 17.8125 10.023C17.8125 7.90123 17.8027 7.63498 17.7653 6.80162C17.7262 5.9699 17.5944 5.40225 17.4023 4.90553C17.2021 4.39162 16.9352 3.95576 16.5006 3.52146C16.0661 3.08693 15.6315 2.81998 15.1172 2.62068C14.6191 2.4274 14.0511 2.29568 13.2194 2.25764C12.386 2.21975 12.1207 2.21045 9.99828 2.21045H10.0007ZM9.29984 3.61834C9.50789 3.61803 9.74 3.61834 10.0007 3.61834C12.0867 3.61834 12.3339 3.62584 13.1577 3.66326C13.9194 3.69811 14.3328 3.82537 14.6082 3.93232C14.9728 4.07389 15.2327 4.24318 15.506 4.5167C15.7795 4.79014 15.9487 5.05053 16.0906 5.41514C16.1976 5.69014 16.325 6.10357 16.3597 6.86529C16.3971 7.68889 16.4052 7.93623 16.4052 10.0212C16.4052 12.1062 16.3971 12.3537 16.3597 13.1772C16.3248 13.9389 16.1976 14.3523 16.0906 14.6274C15.9491 14.992 15.7795 15.2516 15.506 15.5249C15.2326 15.7983 14.973 15.9676 14.6082 16.1092C14.3331 16.2166 13.9194 16.3436 13.1577 16.3784C12.3341 16.4158 12.0867 16.424 10.0007 16.424C7.91461 16.424 7.66734 16.4158 6.84383 16.3784C6.08211 16.3433 5.66867 16.216 5.39305 16.109C5.02852 15.9674 4.76805 15.7982 4.49461 15.5247C4.22117 15.2513 4.05195 14.9915 3.91 14.6268C3.80305 14.3517 3.67563 13.9383 3.64094 13.1765C3.60352 12.3529 3.59602 12.1056 3.59602 10.0193C3.59602 7.93295 3.60352 7.68693 3.64094 6.86334C3.67578 6.10162 3.80305 5.68818 3.91 5.41279C4.05164 5.04818 4.22117 4.78779 4.49469 4.51436C4.7682 4.24092 5.02852 4.07162 5.39312 3.92975C5.66852 3.82232 6.08211 3.69537 6.84383 3.66037C7.56453 3.62779 7.84383 3.61803 9.29984 3.61639V3.61834ZM14.171 4.91553C13.6534 4.91553 13.2335 5.33506 13.2335 5.85272C13.2335 6.37029 13.6534 6.79022 14.171 6.79022C14.6886 6.79022 15.1085 6.37029 15.1085 5.85272C15.1085 5.33514 14.6886 4.91553 14.171 4.91553ZM10.0007 6.01092C7.78508 6.01092 5.98867 7.80732 5.98867 10.023C5.98867 12.2387 7.78508 14.0343 10.0007 14.0343C12.2164 14.0343 14.0122 12.2387 14.0122 10.023C14.0122 7.8074 12.2164 6.01092 10.0007 6.01092ZM10.0007 7.41881C11.4389 7.41881 12.6049 8.58467 12.6049 10.023C12.6049 11.4612 11.4389 12.6272 10.0007 12.6272C8.5625 12.6272 7.39656 11.4612 7.39656 10.023C7.39656 8.58467 8.56242 7.41881 10.0007 7.41881Z" fill="white"/>
<defs>
<radialGradient id="paint0_radial_4968_2139" cx="0" cy="0" r="1" gradientUnits="userSpaceOnUse" gradientTransform="translate(5.3125 21.5633) rotate(-90) scale(19.8215 18.4355)">
<stop stop-color="#FFDD55"/>
<stop offset="0.1" stop-color="#FFDD55"/>
<stop offset="0.5" stop-color="#FF543E"/>
<stop offset="1" stop-color="#C837AB"/>
</radialGradient>
<radialGradient id="paint1_radial_4968_2139" cx="0" cy="0" r="1" gradientUnits="userSpaceOnUse" gradientTransform="translate(-3.35008 1.46365) rotate(78.681) scale(8.86031 36.5225)">
<stop stop-color="#3771C8"/>
<stop offset="0.128" stop-color="#3771C8"/>
<stop offset="1" stop-color="#6600FF" stop-opacity="0"/>
</radialGradient>
</defs>
</svg>
